<svg width="152" height="92" viewBox="0 0 152 92" fill="none" xmlns="http://www.w3.org/2000/svg">
<mask id="path-1-outside-1_3_13" maskUnits="userSpaceOnUse" x="0" y="0" width="152" height="92" fill="black">
<rect fill="white" width="152" height="92"/>
<path d="M18.832 67.84H24.592L31.216 30.304H45.616L36.496 82.24H1.936L16.144 1.6H30.544L29.008 10.24H49.168L46.576 24.64H26.416L18.832 67.84ZM56.6485 82.24L55.1125 90.88H40.7125L54.9205 10.24H89.4805L76.8085 82.24H56.6485ZM66.7285 24.64L59.1445 67.84H64.9045L72.4885 24.64H66.7285ZM95.233 10.24H149.953L137.281 82.24H122.881L132.961 24.64H127.201L117.121 82.24H102.721L112.801 24.64H107.041L96.961 82.24H82.561L95.233 10.24Z"/>
</mask>
<path d="M18.832 67.84H24.592L31.216 30.304H45.616L36.496 82.24H1.936L16.144 1.6H30.544L29.008 10.24H49.168L46.576 24.64H26.416L18.832 67.84ZM56.6485 82.24L55.1125 90.88H40.7125L54.9205 10.24H89.4805L76.8085 82.24H56.6485ZM66.7285 24.64L59.1445 67.84H64.9045L72.4885 24.64H66.7285ZM95.233 10.24H149.953L137.281 82.24H122.881L132.961 24.64H127.201L117.121 82.24H102.721L112.801 24.64H107.041L96.961 82.24H82.561L95.233 10.24Z" fill="white"/>
<path d="M18.832 67.84L17.8471 67.6671L17.6412 68.84H18.832V67.84ZM24.592 67.84V68.84H25.431L25.5768 68.0138L24.592 67.84ZM31.216 30.304V29.304H30.377L30.2312 30.1302L31.216 30.304ZM45.616 30.304L46.6009 30.477L46.8069 29.304H45.616V30.304ZM36.496 82.24V83.24H37.3357L37.4809 82.413L36.496 82.24ZM1.936 82.24L0.951169 82.0665L0.744407 83.24H1.936V82.24ZM16.144 1.6V0.599997H15.3048L15.1592 1.42648L16.144 1.6ZM30.544 1.6L31.5286 1.77503L31.7375 0.599997H30.544V1.6ZM29.008 10.24L28.0234 10.065L27.8145 11.24H29.008V10.24ZM49.168 10.24L50.1522 10.4171L50.3641 9.23999H49.168V10.24ZM46.576 24.64V25.64H47.4121L47.5602 24.8172L46.576 24.64ZM26.416 24.64V23.64H25.5763L25.4311 24.4671L26.416 24.64ZM18.832 67.84V68.84H24.592V67.84V66.84H18.832V67.84ZM24.592 67.84L25.5768 68.0138L32.2008 30.4778L31.216 30.304L30.2312 30.1302L23.6072 67.6662L24.592 67.84ZM31.216 30.304V31.304H45.616V30.304V29.304H31.216V30.304ZM45.616 30.304L44.6311 30.131L35.5111 82.067L36.496 82.24L37.4809 82.413L46.6009 30.477L45.616 30.304ZM36.496 82.24V81.24H1.936V82.24V83.24H36.496V82.24ZM1.936 82.24L2.92083 82.4135L17.1288 1.77351L16.144 1.6L15.1592 1.42648L0.951169 82.0665L1.936 82.24ZM16.144 1.6V2.6H30.544V1.6V0.599997H16.144V1.6ZM30.544 1.6L29.5594 1.42496L28.0234 10.065L29.008 10.24L29.9926 10.415L31.5286 1.77503L30.544 1.6ZM29.008 10.24V11.24H49.168V10.24V9.23999H29.008V10.24ZM49.168 10.24L48.1838 10.0628L45.5918 24.4628L46.576 24.64L47.5602 24.8172L50.1522 10.4171L49.168 10.24ZM46.576 24.64V23.64H26.416V24.64V25.64H46.576V24.64ZM26.416 24.64L25.4311 24.4671L17.8471 67.6671L18.832 67.84L19.8169 68.0129L27.4009 24.8129L26.416 24.64ZM56.6485 82.24V81.24H55.8106L55.6639 82.065L56.6485 82.24ZM55.1125 90.88V91.88H55.9504L56.0971 91.055L55.1125 90.88ZM40.7125 90.88L39.7277 90.7065L39.5209 91.88H40.7125V90.88ZM54.9205 10.24V9.23999H54.0813L53.9357 10.0665L54.9205 10.24ZM89.4805 10.24L90.4654 10.4133L90.6719 9.23999H89.4805V10.24ZM76.8085 82.24V83.24H77.6479L77.7934 82.4133L76.8085 82.24ZM66.7285 24.64V23.64H65.8888L65.7436 24.4671L66.7285 24.64ZM59.1445 67.84L58.1596 67.6671L57.9537 68.84H59.1445V67.84ZM64.9045 67.84V68.84H65.7442L65.8894 68.0129L64.9045 67.84ZM72.4885 24.64L73.4734 24.8129L73.6793 23.64H72.4885V24.64ZM56.6485 82.24L55.6639 82.065L54.1279 90.705L55.1125 90.88L56.0971 91.055L57.6331 82.415L56.6485 82.24ZM55.1125 90.88V89.88H40.7125V90.88V91.88H55.1125V90.88ZM40.7125 90.88L41.6973 91.0535L55.9053 10.4135L54.9205 10.24L53.9357 10.0665L39.7277 90.7065L40.7125 90.88ZM54.9205 10.24V11.24H89.4805V10.24V9.23999H54.9205V10.24ZM89.4805 10.24L88.4956 10.0667L75.8236 82.0667L76.8085 82.24L77.7934 82.4133L90.4654 10.4133L89.4805 10.24ZM76.8085 82.24V81.24H56.6485V82.24V83.24H76.8085V82.24ZM66.7285 24.64L65.7436 24.4671L58.1596 67.6671L59.1445 67.84L60.1294 68.0129L67.7134 24.8129L66.7285 24.64ZM59.1445 67.84V68.84H64.9045V67.84V66.84H59.1445V67.84ZM64.9045 67.84L65.8894 68.0129L73.4734 24.8129L72.4885 24.64L71.5036 24.4671L63.9196 67.6671L64.9045 67.84ZM72.4885 24.64V23.64H66.7285V24.64V25.64H72.4885V24.64ZM95.233 10.24V9.23999H94.3936L94.2481 10.0667L95.233 10.24ZM149.953 10.24L150.938 10.4133L151.144 9.23999H149.953V10.24ZM137.281 82.24V83.24H138.12L138.266 82.4133L137.281 82.24ZM122.881 82.24L121.896 82.0676L121.691 83.24H122.881V82.24ZM132.961 24.64L133.946 24.8124L134.151 23.64H132.961V24.64ZM127.201 24.64V23.64H126.361L126.216 24.4676L127.201 24.64ZM117.121 82.24V83.24H117.961L118.106 82.4124L117.121 82.24ZM102.721 82.24L101.736 82.0676L101.531 83.24H102.721V82.24ZM112.801 24.64L113.786 24.8124L113.991 23.64H112.801V24.64ZM107.041 24.64V23.64H106.201L106.056 24.4676L107.041 24.64ZM96.961 82.24V83.24H97.8012L97.946 82.4124L96.961 82.24ZM82.561 82.24L81.5761 82.0667L81.3696 83.24H82.561V82.24ZM95.233 10.24V11.24H149.953V10.24V9.23999H95.233V10.24ZM149.953 10.24L148.968 10.0667L136.296 82.0667L137.281 82.24L138.266 82.4133L150.938 10.4133L149.953 10.24ZM137.281 82.24V81.24H122.881V82.24V83.24H137.281V82.24ZM122.881 82.24L123.866 82.4124L133.946 24.8124L132.961 24.64L131.976 24.4676L121.896 82.0676L122.881 82.24ZM132.961 24.64V23.64H127.201V24.64V25.64H132.961V24.64ZM127.201 24.64L126.216 24.4676L116.136 82.0676L117.121 82.24L118.106 82.4124L128.186 24.8124L127.201 24.64ZM117.121 82.24V81.24H102.721V82.24V83.24H117.121V82.24ZM102.721 82.24L103.706 82.4124L113.786 24.8124L112.801 24.64L111.816 24.4676L101.736 82.0676L102.721 82.24ZM112.801 24.64V23.64H107.041V24.64V25.64H112.801V24.64ZM107.041 24.64L106.056 24.4676L95.976 82.0676L96.961 82.24L97.946 82.4124L108.026 24.8124L107.041 24.64ZM96.961 82.24V81.24H82.561V82.24V83.24H96.961V82.24ZM82.561 82.24L83.5459 82.4133L96.2179 10.4133L95.233 10.24L94.2481 10.0667L81.5761 82.0667L82.561 82.24Z" fill="#1E1E1E" mask="url(#path-1-outside-1_3_13)"/>
</svg>
